<mxfile host="app.diagrams.net" agent="Mozilla/5.0 (Windows NT 10.0; Win64; x64) AppleWebKit/537.36 (KHTML, like Gecko) Chrome/129.0.0.0 Safari/537.36" version="24.7.17">
  <diagram id="Ht1M8jgEwFfnCIfOTk4-" name="Page-1">
    <mxGraphModel dx="1434" dy="772" grid="1" gridSize="10" guides="1" tooltips="1" connect="1" arrows="1" fold="1" page="1" pageScale="1" pageWidth="1169" pageHeight="827" math="0" shadow="0">
      <root>
        <mxCell id="0" />
        <mxCell id="1" parent="0" />
        <mxCell id="UEzPUAAOIrF-is8g5C7q-74" value="AWS Cloud" style="points=[[0,0],[0.25,0],[0.5,0],[0.75,0],[1,0],[1,0.25],[1,0.5],[1,0.75],[1,1],[0.75,1],[0.5,1],[0.25,1],[0,1],[0,0.75],[0,0.5],[0,0.25]];outlineConnect=0;gradientColor=none;html=1;whiteSpace=wrap;fontSize=12;fontStyle=0;shape=mxgraph.aws4.group;grIcon=mxgraph.aws4.group_aws_cloud_alt;strokeColor=#232F3E;fillColor=none;verticalAlign=top;align=left;spacingLeft=30;fontColor=#232F3E;dashed=0;labelBackgroundColor=#ffffff;container=1;pointerEvents=0;collapsible=0;recursiveResize=0;movable=1;resizable=1;rotatable=1;deletable=1;editable=1;locked=0;connectable=1;" parent="1" vertex="1">
          <mxGeometry x="190" y="80" width="960" height="550" as="geometry" />
        </mxCell>
        <mxCell id="mXGCS9M2xhtk7tg6hHaN-5" value="VPC" style="points=[[0,0],[0.25,0],[0.5,0],[0.75,0],[1,0],[1,0.25],[1,0.5],[1,0.75],[1,1],[0.75,1],[0.5,1],[0.25,1],[0,1],[0,0.75],[0,0.5],[0,0.25]];outlineConnect=0;gradientColor=none;html=1;whiteSpace=wrap;fontSize=12;fontStyle=0;container=1;pointerEvents=0;collapsible=0;recursiveResize=0;shape=mxgraph.aws4.group;grIcon=mxgraph.aws4.group_vpc2;strokeColor=#8C4FFF;fillColor=none;verticalAlign=top;align=left;spacingLeft=30;fontColor=#AAB7B8;dashed=0;movable=1;resizable=1;rotatable=1;deletable=1;editable=1;locked=0;connectable=1;" vertex="1" parent="UEzPUAAOIrF-is8g5C7q-74">
          <mxGeometry x="150" y="50" width="800" height="376" as="geometry" />
        </mxCell>
        <mxCell id="mXGCS9M2xhtk7tg6hHaN-46" style="edgeStyle=orthogonalEdgeStyle;rounded=0;orthogonalLoop=1;jettySize=auto;html=1;exitX=1;exitY=0.5;exitDx=0;exitDy=0;exitPerimeter=0;" edge="1" parent="mXGCS9M2xhtk7tg6hHaN-5" source="mXGCS9M2xhtk7tg6hHaN-7" target="mXGCS9M2xhtk7tg6hHaN-28">
          <mxGeometry relative="1" as="geometry" />
        </mxCell>
        <mxCell id="mXGCS9M2xhtk7tg6hHaN-7" value="" style="sketch=0;points=[[0,0,0],[0.25,0,0],[0.5,0,0],[0.75,0,0],[1,0,0],[0,1,0],[0.25,1,0],[0.5,1,0],[0.75,1,0],[1,1,0],[0,0.25,0],[0,0.5,0],[0,0.75,0],[1,0.25,0],[1,0.5,0],[1,0.75,0]];outlineConnect=0;fontColor=#232F3E;fillColor=#ED7100;strokeColor=#ffffff;dashed=0;verticalLabelPosition=bottom;verticalAlign=top;align=center;html=1;fontSize=12;fontStyle=0;aspect=fixed;shape=mxgraph.aws4.resourceIcon;resIcon=mxgraph.aws4.elastic_load_balancing;movable=1;resizable=1;rotatable=1;deletable=1;editable=1;locked=0;connectable=1;" vertex="1" parent="mXGCS9M2xhtk7tg6hHaN-5">
          <mxGeometry x="90" y="48.5" width="45" height="45" as="geometry" />
        </mxCell>
        <mxCell id="mXGCS9M2xhtk7tg6hHaN-9" value="Public subnet" style="points=[[0,0],[0.25,0],[0.5,0],[0.75,0],[1,0],[1,0.25],[1,0.5],[1,0.75],[1,1],[0.75,1],[0.5,1],[0.25,1],[0,1],[0,0.75],[0,0.5],[0,0.25]];outlineConnect=0;gradientColor=none;html=1;whiteSpace=wrap;fontSize=12;fontStyle=0;container=1;pointerEvents=0;collapsible=0;recursiveResize=0;shape=mxgraph.aws4.group;grIcon=mxgraph.aws4.group_security_group;grStroke=0;strokeColor=#7AA116;fillColor=#F2F6E8;verticalAlign=top;align=left;spacingLeft=30;fontColor=#248814;dashed=0;movable=1;resizable=1;rotatable=1;deletable=1;editable=1;locked=0;connectable=1;" vertex="1" parent="mXGCS9M2xhtk7tg6hHaN-5">
          <mxGeometry x="250" y="10" width="210" height="340" as="geometry" />
        </mxCell>
        <mxCell id="mXGCS9M2xhtk7tg6hHaN-21" value="" style="group" vertex="1" connectable="0" parent="mXGCS9M2xhtk7tg6hHaN-9">
          <mxGeometry x="30" y="86" width="130" height="94" as="geometry" />
        </mxCell>
        <mxCell id="mXGCS9M2xhtk7tg6hHaN-16" value="" style="group" vertex="1" connectable="0" parent="mXGCS9M2xhtk7tg6hHaN-21">
          <mxGeometry width="130" height="94" as="geometry" />
        </mxCell>
        <mxCell id="mXGCS9M2xhtk7tg6hHaN-12" value="ECS on Fargate" style="points=[[0,0],[0.25,0],[0.5,0],[0.75,0],[1,0],[1,0.25],[1,0.5],[1,0.75],[1,1],[0.75,1],[0.5,1],[0.25,1],[0,1],[0,0.75],[0,0.5],[0,0.25]];outlineConnect=0;gradientColor=none;html=1;whiteSpace=wrap;fontSize=12;fontStyle=0;container=0;pointerEvents=0;collapsible=0;recursiveResize=0;shape=mxgraph.aws4.group;grIcon=mxgraph.aws4.group_ec2_instance_contents;strokeColor=#D86613;fillColor=none;verticalAlign=top;align=left;spacingLeft=30;fontColor=#D86613;dashed=0;movable=1;resizable=1;rotatable=1;deletable=1;editable=1;locked=0;connectable=1;" vertex="1" parent="mXGCS9M2xhtk7tg6hHaN-16">
          <mxGeometry width="130" height="94" as="geometry" />
        </mxCell>
        <mxCell id="mXGCS9M2xhtk7tg6hHaN-11" value="" style="sketch=0;points=[[0,0,0],[0.25,0,0],[0.5,0,0],[0.75,0,0],[1,0,0],[0,1,0],[0.25,1,0],[0.5,1,0],[0.75,1,0],[1,1,0],[0,0.25,0],[0,0.5,0],[0,0.75,0],[1,0.25,0],[1,0.5,0],[1,0.75,0]];outlineConnect=0;fontColor=#232F3E;fillColor=#ED7100;strokeColor=#ffffff;dashed=0;verticalLabelPosition=bottom;verticalAlign=top;align=center;html=1;fontSize=12;fontStyle=0;aspect=fixed;shape=mxgraph.aws4.resourceIcon;resIcon=mxgraph.aws4.fargate;movable=1;resizable=1;rotatable=1;deletable=1;editable=1;locked=0;connectable=1;" vertex="1" parent="mXGCS9M2xhtk7tg6hHaN-16">
          <mxGeometry width="30" height="30" as="geometry" />
        </mxCell>
        <mxCell id="mXGCS9M2xhtk7tg6hHaN-18" value="" style="sketch=0;outlineConnect=0;fontColor=#232F3E;gradientColor=none;fillColor=#ED7100;strokeColor=none;dashed=0;verticalLabelPosition=bottom;verticalAlign=top;align=center;html=1;fontSize=12;fontStyle=0;aspect=fixed;pointerEvents=1;shape=mxgraph.aws4.container_1;" vertex="1" parent="mXGCS9M2xhtk7tg6hHaN-16">
          <mxGeometry x="41" y="35.79" width="52.97" height="34.21" as="geometry" />
        </mxCell>
        <mxCell id="mXGCS9M2xhtk7tg6hHaN-20" value="" style="sketch=0;outlineConnect=0;fontColor=#232F3E;gradientColor=none;fillColor=#ED7100;strokeColor=none;dashed=0;verticalLabelPosition=bottom;verticalAlign=top;align=center;html=1;fontSize=12;fontStyle=0;aspect=fixed;pointerEvents=1;shape=mxgraph.aws4.ecs_task;" vertex="1" parent="mXGCS9M2xhtk7tg6hHaN-21">
          <mxGeometry y="64" width="23.13" height="30" as="geometry" />
        </mxCell>
        <mxCell id="mXGCS9M2xhtk7tg6hHaN-28" value="Auto Scaling group" style="points=[[0,0],[0.25,0],[0.5,0],[0.75,0],[1,0],[1,0.25],[1,0.5],[1,0.75],[1,1],[0.75,1],[0.5,1],[0.25,1],[0,1],[0,0.75],[0,0.5],[0,0.25]];outlineConnect=0;gradientColor=none;html=1;whiteSpace=wrap;fontSize=12;fontStyle=0;container=1;pointerEvents=0;collapsible=0;recursiveResize=0;shape=mxgraph.aws4.groupCenter;grIcon=mxgraph.aws4.group_auto_scaling_group;grStroke=1;strokeColor=#D86613;fillColor=none;verticalAlign=top;align=center;fontColor=#D86613;dashed=1;spacingTop=25;" vertex="1" parent="mXGCS9M2xhtk7tg6hHaN-9">
          <mxGeometry x="20" y="30" width="160" height="270" as="geometry" />
        </mxCell>
        <mxCell id="mXGCS9M2xhtk7tg6hHaN-30" value="" style="group" vertex="1" connectable="0" parent="mXGCS9M2xhtk7tg6hHaN-28">
          <mxGeometry x="10" y="156" width="130" height="94" as="geometry" />
        </mxCell>
        <mxCell id="mXGCS9M2xhtk7tg6hHaN-31" value="" style="group" vertex="1" connectable="0" parent="mXGCS9M2xhtk7tg6hHaN-30">
          <mxGeometry width="130" height="94" as="geometry" />
        </mxCell>
        <mxCell id="mXGCS9M2xhtk7tg6hHaN-32" value="ECS on Fargate" style="points=[[0,0],[0.25,0],[0.5,0],[0.75,0],[1,0],[1,0.25],[1,0.5],[1,0.75],[1,1],[0.75,1],[0.5,1],[0.25,1],[0,1],[0,0.75],[0,0.5],[0,0.25]];outlineConnect=0;gradientColor=none;html=1;whiteSpace=wrap;fontSize=12;fontStyle=0;container=0;pointerEvents=0;collapsible=0;recursiveResize=0;shape=mxgraph.aws4.group;grIcon=mxgraph.aws4.group_ec2_instance_contents;strokeColor=#D86613;fillColor=none;verticalAlign=top;align=left;spacingLeft=30;fontColor=#D86613;dashed=0;movable=1;resizable=1;rotatable=1;deletable=1;editable=1;locked=0;connectable=1;" vertex="1" parent="mXGCS9M2xhtk7tg6hHaN-31">
          <mxGeometry width="130" height="94" as="geometry" />
        </mxCell>
        <mxCell id="mXGCS9M2xhtk7tg6hHaN-33" value="" style="sketch=0;points=[[0,0,0],[0.25,0,0],[0.5,0,0],[0.75,0,0],[1,0,0],[0,1,0],[0.25,1,0],[0.5,1,0],[0.75,1,0],[1,1,0],[0,0.25,0],[0,0.5,0],[0,0.75,0],[1,0.25,0],[1,0.5,0],[1,0.75,0]];outlineConnect=0;fontColor=#232F3E;fillColor=#ED7100;strokeColor=#ffffff;dashed=0;verticalLabelPosition=bottom;verticalAlign=top;align=center;html=1;fontSize=12;fontStyle=0;aspect=fixed;shape=mxgraph.aws4.resourceIcon;resIcon=mxgraph.aws4.fargate;movable=1;resizable=1;rotatable=1;deletable=1;editable=1;locked=0;connectable=1;" vertex="1" parent="mXGCS9M2xhtk7tg6hHaN-31">
          <mxGeometry width="30" height="30" as="geometry" />
        </mxCell>
        <mxCell id="mXGCS9M2xhtk7tg6hHaN-34" value="" style="sketch=0;outlineConnect=0;fontColor=#232F3E;gradientColor=none;fillColor=#ED7100;strokeColor=none;dashed=0;verticalLabelPosition=bottom;verticalAlign=top;align=center;html=1;fontSize=12;fontStyle=0;aspect=fixed;pointerEvents=1;shape=mxgraph.aws4.container_1;" vertex="1" parent="mXGCS9M2xhtk7tg6hHaN-31">
          <mxGeometry x="41" y="35.79" width="52.97" height="34.21" as="geometry" />
        </mxCell>
        <mxCell id="mXGCS9M2xhtk7tg6hHaN-35" value="" style="sketch=0;outlineConnect=0;fontColor=#232F3E;gradientColor=none;fillColor=#ED7100;strokeColor=none;dashed=0;verticalLabelPosition=bottom;verticalAlign=top;align=center;html=1;fontSize=12;fontStyle=0;aspect=fixed;pointerEvents=1;shape=mxgraph.aws4.ecs_task;" vertex="1" parent="mXGCS9M2xhtk7tg6hHaN-30">
          <mxGeometry y="64" width="23.13" height="30" as="geometry" />
        </mxCell>
        <mxCell id="mXGCS9M2xhtk7tg6hHaN-29" value="Private subnet" style="points=[[0,0],[0.25,0],[0.5,0],[0.75,0],[1,0],[1,0.25],[1,0.5],[1,0.75],[1,1],[0.75,1],[0.5,1],[0.25,1],[0,1],[0,0.75],[0,0.5],[0,0.25]];outlineConnect=0;gradientColor=none;html=1;whiteSpace=wrap;fontSize=12;fontStyle=0;container=1;pointerEvents=0;collapsible=0;recursiveResize=0;shape=mxgraph.aws4.group;grIcon=mxgraph.aws4.group_security_group;grStroke=0;strokeColor=#00A4A6;fillColor=#E6F6F7;verticalAlign=top;align=left;spacingLeft=30;fontColor=#147EBA;dashed=0;" vertex="1" parent="mXGCS9M2xhtk7tg6hHaN-5">
          <mxGeometry x="580" y="5" width="200" height="345" as="geometry" />
        </mxCell>
        <mxCell id="mXGCS9M2xhtk7tg6hHaN-36" value="" style="sketch=0;points=[[0,0,0],[0.25,0,0],[0.5,0,0],[0.75,0,0],[1,0,0],[0,1,0],[0.25,1,0],[0.5,1,0],[0.75,1,0],[1,1,0],[0,0.25,0],[0,0.5,0],[0,0.75,0],[1,0.25,0],[1,0.5,0],[1,0.75,0]];outlineConnect=0;fontColor=#232F3E;fillColor=#C925D1;strokeColor=#ffffff;dashed=0;verticalLabelPosition=bottom;verticalAlign=top;align=center;html=1;fontSize=12;fontStyle=0;aspect=fixed;shape=mxgraph.aws4.resourceIcon;resIcon=mxgraph.aws4.aurora;" vertex="1" parent="mXGCS9M2xhtk7tg6hHaN-29">
          <mxGeometry x="82.5" y="120" width="35" height="35" as="geometry" />
        </mxCell>
        <mxCell id="mXGCS9M2xhtk7tg6hHaN-47" style="edgeStyle=orthogonalEdgeStyle;rounded=0;orthogonalLoop=1;jettySize=auto;html=1;exitX=1;exitY=0.5;exitDx=0;exitDy=0;" edge="1" parent="mXGCS9M2xhtk7tg6hHaN-5" source="mXGCS9M2xhtk7tg6hHaN-12" target="mXGCS9M2xhtk7tg6hHaN-36">
          <mxGeometry relative="1" as="geometry" />
        </mxCell>
        <mxCell id="mXGCS9M2xhtk7tg6hHaN-48" style="edgeStyle=orthogonalEdgeStyle;rounded=0;orthogonalLoop=1;jettySize=auto;html=1;exitX=1;exitY=0.5;exitDx=0;exitDy=0;entryX=0;entryY=0.5;entryDx=0;entryDy=0;entryPerimeter=0;" edge="1" parent="mXGCS9M2xhtk7tg6hHaN-5" source="mXGCS9M2xhtk7tg6hHaN-32" target="mXGCS9M2xhtk7tg6hHaN-36">
          <mxGeometry relative="1" as="geometry" />
        </mxCell>
        <mxCell id="mXGCS9M2xhtk7tg6hHaN-6" value="" style="sketch=0;outlineConnect=0;fontColor=#232F3E;gradientColor=none;fillColor=#8C4FFF;strokeColor=none;dashed=0;verticalLabelPosition=bottom;verticalAlign=top;align=center;html=1;fontSize=12;fontStyle=0;aspect=fixed;pointerEvents=1;shape=mxgraph.aws4.internet_gateway;movable=1;resizable=1;rotatable=1;deletable=1;editable=1;locked=0;connectable=1;" vertex="1" parent="UEzPUAAOIrF-is8g5C7q-74">
          <mxGeometry x="130" y="101" width="40" height="40" as="geometry" />
        </mxCell>
        <mxCell id="mXGCS9M2xhtk7tg6hHaN-43" style="edgeStyle=orthogonalEdgeStyle;rounded=0;orthogonalLoop=1;jettySize=auto;html=1;exitX=0.5;exitY=0;exitDx=0;exitDy=0;exitPerimeter=0;entryX=0.5;entryY=1;entryDx=0;entryDy=0;" edge="1" parent="UEzPUAAOIrF-is8g5C7q-74" source="mXGCS9M2xhtk7tg6hHaN-37" target="mXGCS9M2xhtk7tg6hHaN-28">
          <mxGeometry relative="1" as="geometry" />
        </mxCell>
        <mxCell id="mXGCS9M2xhtk7tg6hHaN-37" value="" style="sketch=0;points=[[0,0,0],[0.25,0,0],[0.5,0,0],[0.75,0,0],[1,0,0],[0,1,0],[0.25,1,0],[0.5,1,0],[0.75,1,0],[1,1,0],[0,0.25,0],[0,0.5,0],[0,0.75,0],[1,0.25,0],[1,0.5,0],[1,0.75,0]];outlineConnect=0;fontColor=#232F3E;fillColor=#ED7100;strokeColor=#ffffff;dashed=0;verticalLabelPosition=bottom;verticalAlign=top;align=center;html=1;fontSize=12;fontStyle=0;aspect=fixed;shape=mxgraph.aws4.resourceIcon;resIcon=mxgraph.aws4.ecr;" vertex="1" parent="UEzPUAAOIrF-is8g5C7q-74">
          <mxGeometry x="476" y="468.5" width="48" height="48" as="geometry" />
        </mxCell>
        <mxCell id="mXGCS9M2xhtk7tg6hHaN-42" style="edgeStyle=orthogonalEdgeStyle;rounded=0;orthogonalLoop=1;jettySize=auto;html=1;exitX=1;exitY=0.5;exitDx=0;exitDy=0;exitPerimeter=0;" edge="1" parent="UEzPUAAOIrF-is8g5C7q-74" source="mXGCS9M2xhtk7tg6hHaN-39" target="mXGCS9M2xhtk7tg6hHaN-37">
          <mxGeometry relative="1" as="geometry" />
        </mxCell>
        <mxCell id="mXGCS9M2xhtk7tg6hHaN-39" value="" style="outlineConnect=0;dashed=0;verticalLabelPosition=bottom;verticalAlign=top;align=center;html=1;shape=mxgraph.aws3.codebuild;fillColor=#759C3E;gradientColor=none;" vertex="1" parent="UEzPUAAOIrF-is8g5C7q-74">
          <mxGeometry x="230" y="471" width="40" height="43" as="geometry" />
        </mxCell>
        <mxCell id="mXGCS9M2xhtk7tg6hHaN-45" style="edgeStyle=orthogonalEdgeStyle;rounded=0;orthogonalLoop=1;jettySize=auto;html=1;entryX=0;entryY=0.5;entryDx=0;entryDy=0;entryPerimeter=0;" edge="1" parent="UEzPUAAOIrF-is8g5C7q-74" source="mXGCS9M2xhtk7tg6hHaN-6" target="mXGCS9M2xhtk7tg6hHaN-7">
          <mxGeometry relative="1" as="geometry" />
        </mxCell>
        <mxCell id="mXGCS9M2xhtk7tg6hHaN-49" value="" style="sketch=0;points=[[0,0,0],[0.25,0,0],[0.5,0,0],[0.75,0,0],[1,0,0],[0,1,0],[0.25,1,0],[0.5,1,0],[0.75,1,0],[1,1,0],[0,0.25,0],[0,0.5,0],[0,0.75,0],[1,0.25,0],[1,0.5,0],[1,0.75,0]];outlineConnect=0;fontColor=#232F3E;fillColor=#DD344C;strokeColor=#ffffff;dashed=0;verticalLabelPosition=bottom;verticalAlign=top;align=center;html=1;fontSize=12;fontStyle=0;aspect=fixed;shape=mxgraph.aws4.resourceIcon;resIcon=mxgraph.aws4.cognito;" vertex="1" parent="UEzPUAAOIrF-is8g5C7q-74">
          <mxGeometry x="40" y="180" width="48" height="48" as="geometry" />
        </mxCell>
        <mxCell id="mXGCS9M2xhtk7tg6hHaN-44" style="edgeStyle=orthogonalEdgeStyle;rounded=0;orthogonalLoop=1;jettySize=auto;html=1;" edge="1" parent="1" source="mXGCS9M2xhtk7tg6hHaN-4" target="mXGCS9M2xhtk7tg6hHaN-6">
          <mxGeometry relative="1" as="geometry" />
        </mxCell>
        <mxCell id="mXGCS9M2xhtk7tg6hHaN-4" value="users" style="sketch=0;outlineConnect=0;gradientColor=none;fontColor=#545B64;strokeColor=none;fillColor=#879196;dashed=0;verticalLabelPosition=bottom;verticalAlign=top;align=center;html=1;fontSize=12;fontStyle=0;aspect=fixed;shape=mxgraph.aws4.illustration_users;pointerEvents=1" vertex="1" parent="1">
          <mxGeometry x="80" y="176" width="50" height="50" as="geometry" />
        </mxCell>
        <mxCell id="mXGCS9M2xhtk7tg6hHaN-41" style="edgeStyle=orthogonalEdgeStyle;rounded=0;orthogonalLoop=1;jettySize=auto;html=1;exitX=1;exitY=0.5;exitDx=0;exitDy=0;" edge="1" parent="1" source="mXGCS9M2xhtk7tg6hHaN-40" target="mXGCS9M2xhtk7tg6hHaN-39">
          <mxGeometry relative="1" as="geometry" />
        </mxCell>
        <mxCell id="mXGCS9M2xhtk7tg6hHaN-40" value="" style="shape=image;html=1;verticalAlign=top;verticalLabelPosition=bottom;labelBackgroundColor=#ffffff;imageAspect=0;aspect=fixed;image=https://cdn4.iconfinder.com/data/icons/ionicons/512/icon-social-github-128.png" vertex="1" parent="1">
          <mxGeometry x="80" y="547.5" width="50" height="50" as="geometry" />
        </mxCell>
        <mxCell id="mXGCS9M2xhtk7tg6hHaN-51" style="edgeStyle=orthogonalEdgeStyle;rounded=0;orthogonalLoop=1;jettySize=auto;html=1;entryX=0;entryY=0.5;entryDx=0;entryDy=0;entryPerimeter=0;" edge="1" parent="1" source="mXGCS9M2xhtk7tg6hHaN-4" target="mXGCS9M2xhtk7tg6hHaN-49">
          <mxGeometry relative="1" as="geometry">
            <Array as="points">
              <mxPoint x="150" y="201" />
              <mxPoint x="150" y="284" />
            </Array>
          </mxGeometry>
        </mxCell>
      </root>
    </mxGraphModel>
  </diagram>
</mxfile>
